<svg width="23" height="23" viewBox="0 0 23 23" fill="none" xmlns="http://www.w3.org/2000/svg">
<g clip-path="url(#clip0_83_17)">
<path d="M6.80016 5.32954C8.66205 6.72356 10.6647 9.55005 11.4 11.0669C12.1353 9.55016 14.1379 6.72353 15.9998 5.32954C17.3433 4.32367 19.52 3.54538 19.52 6.02193C19.52 6.51652 19.2357 10.1768 19.0689 10.7711C18.4892 12.837 16.3769 13.364 14.4979 13.045C17.7823 13.6025 18.6178 15.4491 16.8134 17.2957C13.3865 20.8027 11.8879 16.4158 11.5038 15.2917C11.4334 15.0856 11.4004 14.9892 11.4 15.0712C11.3995 14.9892 11.3665 15.0856 11.2961 15.2917C10.9121 16.4158 9.41362 20.8029 5.9865 17.2957C4.18207 15.4491 5.01756 13.6024 8.30202 13.045C6.42299 13.364 4.31062 12.837 3.73102 10.7711C3.56424 10.1768 3.27991 6.51647 3.27991 6.02193C3.27991 3.54538 5.45668 4.32367 6.80007 5.32954H6.80016Z" fill="#BCF1ED"/>
</g>
<defs>
<clipPath id="clip0_83_17">
<rect width="16.8" height="14.8" fill="white" transform="translate(3 4.10001)"/>
</clipPath>
</defs>
</svg>
