<svg width="23" height="23" viewBox="0 0 23 23" fill="none" xmlns="http://www.w3.org/2000/svg">
<path d="M14 4.4502C14.3038 4.4502 14.5498 4.69624 14.5498 5V7.59961C14.5498 7.90337 14.3038 8.15039 14 8.15039H12.3955C12.3838 8.16768 12.3682 8.20175 12.3682 8.25V9.65039H14C14.1657 9.65039 14.3223 9.7249 14.4268 9.85352C14.5311 9.98204 14.572 10.1505 14.5381 10.3125L13.9932 12.9131C13.9397 13.1677 13.7143 13.3496 13.4541 13.3496H12.3682V18C12.3682 18.3037 12.122 18.5497 11.8184 18.5498H9.63672C9.33296 18.5498 9.08594 18.3038 9.08594 18V13.3496H8C7.69624 13.3496 7.4502 13.1036 7.4502 12.7998V10.2002C7.4502 9.89644 7.69624 9.65039 8 9.65039H9.08594V8.25L9.08984 8.06641C9.12787 7.15184 9.44972 6.2708 10.0137 5.59863C10.6177 4.87879 11.46 4.45031 12.3633 4.4502H14Z" stroke="#BCF1ED" stroke-width="1.1" stroke-linecap="round" stroke-linejoin="round"/>
</svg>
