<svg width="23" height="23" viewBox="0 0 23 23" fill="none" xmlns="http://www.w3.org/2000/svg">
<path d="M19 11.1C19 10.1 18.2 9.3 17.2 9.4C16.8 9.4 16.3 9.6 16 9.9C14.6 9 13 8.4 11.3 8.4L12.1 4.6L14.7 5.2C14.7 5.9 15.3 6.4 16 6.4C16.7 6.4 17.2 5.8 17.2 5.1C17.2 4.4 16.6 3.9 15.9 3.9C15.4 3.9 15 4.2 14.8 4.6L12 3.9H11.8C11.7 3.9 11.7 4 11.7 4.1L10.7 8.4C9 8.4 7.4 8.9 6 9.9C5.3 9.2 4.2 9.2 3.5 9.9C2.8 10.6 2.8 11.7 3.5 12.4C3.6 12.5 3.8 12.7 4 12.7V13.2C4 15.9 7.1 18.1 11 18.1C14.9 18.1 18 15.9 18 13.2V12.7C18.6 12.4 19 11.8 19 11.1ZM7 12.4C7 11.7 7.6 11.2 8.2 11.2C8.9 11.2 9.4 11.8 9.4 12.4C9.4 13 8.8 13.6 8.2 13.6C7.5 13.6 7 13.1 7 12.4ZM14 15.7C13.1 16.3 12.1 16.7 11 16.6C9.9 16.6 8.9 16.3 8 15.7C7.9 15.6 7.9 15.4 8 15.2C8.1 15.1 8.3 15.1 8.4 15.2C9.1 15.7 10 16 10.9 15.9C11.8 16 12.7 15.7 13.4 15.2C13.5 15.1 13.7 15.1 13.9 15.2C14.1 15.3 14.1 15.5 14 15.7ZM13.7 13.6C13 13.6 12.5 13 12.5 12.4C12.5 11.8 13.1 11.2 13.7 11.2C14.4 11.2 14.9 11.8 14.9 12.4C15 13.1 14.4 13.6 13.7 13.6Z" fill="#BCF1ED"/>
</svg>
