<svg width="23" height="23" viewBox="0 0 23 23" fill="none" xmlns="http://www.w3.org/2000/svg">
<path d="M6.0459 14.959C6.57497 14.9591 7.08194 15.1698 7.45605 15.5439C7.83017 15.9181 8.0409 16.425 8.04102 16.9541C8.04102 17.4833 7.83027 17.991 7.45605 18.3652C7.08194 18.7393 6.57494 18.9501 6.0459 18.9502C5.51667 18.9502 5.00899 18.7395 4.63477 18.3652C4.26055 17.991 4.0498 17.4833 4.0498 16.9541C4.04992 16.4251 4.26068 15.9181 4.63477 15.5439C5.00899 15.1697 5.51667 14.959 6.0459 14.959ZM4.0498 4.0498C12.2668 4.0766 18.9224 10.7332 18.9492 18.9502H16.3213C16.2944 12.1916 10.8084 6.70457 4.0498 6.67773V4.0498ZM4.0498 8.82324C9.62817 8.85002 14.15 13.3718 14.1768 18.9502H11.5488C11.5221 14.8234 8.17659 11.4779 4.0498 11.4512V8.82324Z" fill="#BCF1ED" stroke="#94BEBA" stroke-width="0.1"/>
</svg>
