<svg xmlns="http://www.w3.org/2000/svg" viewBox="0 0 1200 630" role="img" aria-labelledby="title desc">
  <title id="title">Introducing NoteTick</title>
  <desc id="desc">A dark desktop-themed illustration with sticky note windows, checkboxes, and the NoteTick title.</desc>
  <defs>
    <linearGradient id="bg" x1="0" y1="0" x2="1" y2="1">
      <stop offset="0%" stop-color="#161616" />
      <stop offset="100%" stop-color="#0d0d0d" />
    </linearGradient>
    <linearGradient id="panel" x1="0" y1="0" x2="1" y2="1">
      <stop offset="0%" stop-color="#2b2118" />
      <stop offset="100%" stop-color="#171717" />
    </linearGradient>
    <filter id="shadow" x="-20%" y="-20%" width="140%" height="140%">
      <feDropShadow dx="0" dy="20" stdDeviation="20" flood-color="#000000" flood-opacity="0.35" />
    </filter>
  </defs>

  <rect width="1200" height="630" fill="url(#bg)" />
  <circle cx="1010" cy="94" r="220" fill="#ff9933" opacity="0.12" />
  <circle cx="170" cy="540" r="250" fill="#f0e3cf" opacity="0.06" />
  <circle cx="530" cy="200" r="160" fill="#ffffff" opacity="0.04" />

  <g filter="url(#shadow)">
    <g transform="translate(96 128) rotate(-6 150 160)">
      <rect x="0" y="0" width="290" height="320" rx="24" fill="#1d1d1d" stroke="#3a3128" />
      <rect x="20" y="20" width="250" height="34" rx="12" fill="#2a2a2a" />
      <circle cx="42" cy="37" r="5" fill="#ff9933" />
      <circle cx="60" cy="37" r="5" fill="#d7b98f" />
      <circle cx="78" cy="37" r="5" fill="#8f8f8f" />
      <rect x="24" y="84" width="20" height="20" rx="5" fill="none" stroke="#ffb564" stroke-width="3" />
      <path d="M30 95l7 7 13-15" fill="none" stroke="#ffb564" stroke-width="3.2" stroke-linecap="round" stroke-linejoin="round" />
      <rect x="58" y="88" width="160" height="10" rx="5" fill="#efe6da" opacity="0.92" />
      <rect x="58" y="107" width="110" height="8" rx="4" fill="#cbb79f" opacity="0.62" />
      <rect x="24" y="138" width="20" height="20" rx="5" fill="none" stroke="#c8b08d" stroke-width="3" />
      <rect x="58" y="142" width="180" height="10" rx="5" fill="#efe6da" opacity="0.9" />
      <rect x="58" y="161" width="128" height="8" rx="4" fill="#cbb79f" opacity="0.62" />
      <rect x="24" y="192" width="20" height="20" rx="5" fill="none" stroke="#c8b08d" stroke-width="3" />
      <rect x="58" y="196" width="152" height="10" rx="5" fill="#efe6da" opacity="0.9" />
      <rect x="58" y="215" width="96" height="8" rx="4" fill="#cbb79f" opacity="0.62" />
      <rect x="24" y="252" width="210" height="38" rx="16" fill="#2a2118" stroke="#5c4632" />
      <text x="40" y="276" fill="#ffb564" font-family="Georgia, serif" font-size="22">Quick lists</text>
    </g>

    <g transform="translate(238 88)">
      <rect x="0" y="0" width="320" height="376" rx="28" fill="#1f1f1f" stroke="#4b3b2d" />
      <rect x="24" y="24" width="272" height="40" rx="14" fill="#262626" />
      <circle cx="50" cy="44" r="6" fill="#ff9933" />
      <circle cx="70" cy="44" r="6" fill="#d7b98f" />
      <circle cx="90" cy="44" r="6" fill="#8f8f8f" />
      <text x="28" y="108" fill="#f4ede5" font-family="Georgia, serif" font-size="34">Today</text>
      <rect x="28" y="136" width="24" height="24" rx="6" fill="#ff9933" opacity="0.22" stroke="#ffb564" stroke-width="2.5" />
      <path d="M35 148l7 7 12-14" fill="none" stroke="#ffb564" stroke-width="3.2" stroke-linecap="round" stroke-linejoin="round" />
      <rect x="66" y="142" width="184" height="10" rx="5" fill="#efe6da" />
      <rect x="66" y="160" width="132" height="8" rx="4" fill="#cbb79f" opacity="0.62" />
      <rect x="28" y="192" width="24" height="24" rx="6" fill="none" stroke="#d8c09a" stroke-width="2.5" />
      <rect x="66" y="198" width="198" height="10" rx="5" fill="#efe6da" opacity="0.95" />
      <rect x="66" y="216" width="150" height="8" rx="4" fill="#cbb79f" opacity="0.62" />
      <rect x="28" y="248" width="24" height="24" rx="6" fill="none" stroke="#d8c09a" stroke-width="2.5" />
      <rect x="66" y="254" width="166" height="10" rx="5" fill="#efe6da" opacity="0.95" />
      <rect x="66" y="272" width="102" height="8" rx="4" fill="#cbb79f" opacity="0.62" />
      <rect x="28" y="312" width="122" height="32" rx="16" fill="#2a2118" stroke="#75563a" />
      <rect x="164" y="312" width="128" height="32" rx="16" fill="#202020" stroke="#4c4c4c" />
      <text x="48" y="334" fill="#ffbf7a" font-family="Georgia, serif" font-size="18">Offline</text>
      <text x="196" y="334" fill="#efe6da" font-family="Georgia, serif" font-size="18">Simple</text>
    </g>

    <g transform="translate(410 168) rotate(7 132 138)">
      <rect x="0" y="0" width="264" height="276" rx="24" fill="#1b1b1b" stroke="#3a342d" />
      <rect x="20" y="20" width="224" height="32" rx="12" fill="#252525" />
      <circle cx="40" cy="36" r="5" fill="#ff9933" />
      <circle cx="58" cy="36" r="5" fill="#d7b98f" />
      <circle cx="76" cy="36" r="5" fill="#8f8f8f" />
      <rect x="24" y="82" width="160" height="10" rx="5" fill="#efe6da" opacity="0.92" />
      <rect x="24" y="104" width="196" height="8" rx="4" fill="#cbb79f" opacity="0.62" />
      <rect x="24" y="140" width="216" height="92" rx="18" fill="url(#panel)" stroke="#5a4330" />
      <rect x="42" y="162" width="18" height="18" rx="4" fill="#ff9933" opacity="0.18" stroke="#ffb564" stroke-width="2.5" />
      <path d="M47 171l6 6 10-12" fill="none" stroke="#ffb564" stroke-width="2.8" stroke-linecap="round" stroke-linejoin="round" />
      <rect x="72" y="167" width="110" height="8" rx="4" fill="#f0e7dc" />
      <rect x="72" y="183" width="86" height="7" rx="3.5" fill="#ccb89f" opacity="0.65" />
      <rect x="42" y="204" width="18" height="18" rx="4" fill="none" stroke="#d8c09a" stroke-width="2.5" />
      <rect x="72" y="209" width="124" height="8" rx="4" fill="#f0e7dc" opacity="0.95" />
    </g>
  </g>

  <text x="690" y="236" fill="#f3ede6" font-family="Georgia, serif" font-size="58">Introducing</text>
  <text x="690" y="314" fill="#ffb564" font-family="Georgia, serif" font-size="88" font-weight="700">NoteTick</text>
  <text x="692" y="370" fill="#d8cec5" font-family="Georgia, serif" font-size="28">Desktop notes without the noise</text>

  <g transform="translate(690 416)">
    <rect x="0" y="0" width="162" height="42" rx="21" fill="#201a15" stroke="#5f452e" />
    <rect x="176" y="0" width="174" height="42" rx="21" fill="#1b1b1b" stroke="#3e3e3e" />
    <rect x="366" y="0" width="136" height="42" rx="21" fill="#201a15" stroke="#5f452e" />
    <text x="26" y="27" fill="#ffbf7a" font-family="Georgia, serif" font-size="22">No accounts</text>
    <text x="206" y="27" fill="#f3ede6" font-family="Georgia, serif" font-size="22">Just notes</text>
    <text x="392" y="27" fill="#ffbf7a" font-family="Georgia, serif" font-size="22">Offline</text>
  </g>
</svg>
