<svg width="40" height="40" viewBox="0 0 40 40" fill="none" xmlns="http://www.w3.org/2000/svg">
<rect x="0.5" y="0.5" width="39" height="39" rx="6.5" fill="url(#paint0_linear_86_21)" fill-opacity="0.9" stroke="black"/>
<path d="M22.6872 16.3447C20.2825 15.4523 18.9716 14.7659 18.9716 13.6775C18.9716 12.7575 19.7278 12.2327 21.0763 12.2327C23.5419 12.2327 26.075 13.1827 27.8188 14.0385L28.8041 7.95583C27.4213 7.29376 24.5926 6.21429 20.6822 6.21429C17.9165 6.21429 15.6159 6.93837 13.9718 8.28687C12.2623 9.69847 11.3733 11.7412 11.3733 14.2057C11.3733 18.6774 14.1046 20.5828 18.5432 22.1981C21.4051 23.2167 22.3573 23.9408 22.3573 25.0579C22.3573 26.1429 21.4273 26.7684 19.751 26.7684C17.6751 26.7684 14.2541 25.7487 12.0121 24.4334L11.0157 30.5836C12.9432 31.6675 16.4972 32.7857 20.1828 32.7857C23.1068 32.7857 25.5447 32.0949 27.1888 30.7785C29.0311 29.3337 29.9844 27.1958 29.9844 24.4323C29.9844 19.862 27.1899 17.9544 22.6839 16.3447H22.6872Z" fill="white"/>
<defs>
<linearGradient id="paint0_linear_86_21" x1="20" y1="0" x2="20" y2="40" gradientUnits="userSpaceOnUse">
<stop offset="0.509615" stop-color="#3E9AD7"/>
<stop offset="1" stop-color="#5BB4E5"/>
</linearGradient>
</defs>
</svg>
