<svg width="19" height="19" viewBox="0 0 19 19" fill="none" xmlns="http://www.w3.org/2000/svg">
<g clip-path="url(#clip0_88_17)">
<path fill-rule="evenodd" clip-rule="evenodd" d="M9.5 0C11.3789 0 13.2156 0.557165 14.7779 1.60104C16.3402 2.64491 17.5578 4.12861 18.2769 5.86451C18.9959 7.60041 19.184 9.51054 18.8175 11.3534C18.4509 13.1962 17.5461 14.8889 16.2175 16.2175C14.8889 17.5461 13.1962 18.4509 11.3534 18.8175C9.51054 19.184 7.60041 18.9959 5.86451 18.2769C4.12861 17.5578 2.64491 16.3402 1.60104 14.7779C0.557165 13.2156 0 11.3789 0 9.5C0 6.98044 1.00089 4.56408 2.78249 2.78249C4.56408 1.00089 6.98044 0 9.5 0ZM5.29272 7.77132C5.29272 7.83813 5.27957 7.90428 5.254 7.966C5.22844 8.02771 5.19097 8.08379 5.14373 8.13103C5.09649 8.17827 5.04041 8.21574 4.97869 8.24131C4.91697 8.26687 4.85082 8.28003 4.78402 8.28003C4.71721 8.28003 4.65106 8.26687 4.58934 8.24131C4.52762 8.21574 4.47154 8.17827 4.42431 8.13103C4.37707 8.08379 4.3396 8.02771 4.31403 7.966C4.28847 7.90428 4.27531 7.83813 4.27531 7.77132V5.46126C4.2747 5.39407 4.2874 5.32742 4.31269 5.26516C4.33798 5.20291 4.37536 5.14628 4.42266 5.09855C4.46996 5.05082 4.52624 5.01293 4.58827 4.98708C4.65029 4.96122 4.71682 4.94791 4.78402 4.94792H7.13737C7.27229 4.94792 7.40168 5.00151 7.49708 5.09691C7.59248 5.19231 7.64608 5.32171 7.64608 5.45662C7.64608 5.59154 7.59248 5.72093 7.49708 5.81634C7.40168 5.91174 7.27229 5.96533 7.13737 5.96533H6.01326L8.04036 7.98625C8.08757 8.03325 8.12506 8.0891 8.15069 8.15059C8.17632 8.21209 8.18958 8.27803 8.18973 8.34465C8.18987 8.41127 8.17689 8.47727 8.15153 8.53887C8.12617 8.60048 8.08892 8.65648 8.04191 8.70369C7.9949 8.7509 7.93906 8.78839 7.87756 8.81402C7.81607 8.83965 7.75013 8.85291 7.68351 8.85306C7.61689 8.8532 7.55089 8.84022 7.48928 8.81486C7.42768 8.78949 7.37167 8.75225 7.32446 8.70524L5.29272 6.68587V7.76823V7.77132ZM7.35693 13.2975C7.4872 13.3047 7.60977 13.3615 7.69945 13.4563C7.78913 13.551 7.83911 13.6765 7.83911 13.807C7.83911 13.9375 7.78913 14.063 7.69945 14.1577C7.60977 14.2525 7.4872 14.3093 7.35693 14.3165H5.04687C4.91196 14.3165 4.78257 14.2629 4.68716 14.1675C4.59176 14.0721 4.53817 13.9427 4.53817 13.8078V11.4421C4.53817 11.3071 4.59176 11.1777 4.68716 11.0823C4.78257 10.9869 4.91196 10.9333 5.04687 10.9333C5.18179 10.9333 5.31118 10.9869 5.40659 11.0823C5.50199 11.1777 5.55558 11.3071 5.55558 11.4421V12.5708L7.5765 10.5499C7.6235 10.5027 7.67935 10.4652 7.74084 10.4396C7.80234 10.4139 7.86828 10.4007 7.9349 10.4005C8.00152 10.4004 8.06752 10.4134 8.12912 10.4387C8.19073 10.4641 8.24674 10.5013 8.29394 10.5483C8.34115 10.5953 8.37864 10.6512 8.40427 10.7127C8.4299 10.7742 8.44316 10.8401 8.44331 10.9067C8.44345 10.9734 8.43047 11.0394 8.40511 11.101C8.37975 11.1626 8.3425 11.2186 8.29549 11.2658L6.27148 13.2975H7.35693ZM13.7073 11.2287C13.7073 11.0938 13.7609 10.9644 13.8563 10.869C13.9517 10.7736 14.0811 10.72 14.216 10.72C14.3509 10.72 14.4803 10.7736 14.5757 10.869C14.6711 10.9644 14.7247 11.0938 14.7247 11.2287V13.5387C14.7247 13.6737 14.6711 13.803 14.5757 13.8984C14.4803 13.9938 14.3509 14.0474 14.216 14.0474H11.8626C11.7277 14.0474 11.5983 13.9938 11.5029 13.8984C11.4075 13.803 11.3539 13.6737 11.3539 13.5387C11.3539 13.4038 11.4075 13.2744 11.5029 13.179C11.5983 13.0836 11.7277 13.03 11.8626 13.03H12.9883L10.9658 11.0199C10.8705 10.925 10.8167 10.7961 10.8165 10.6615C10.8162 10.527 10.8693 10.3978 10.9643 10.3025C11.0592 10.2071 11.1881 10.1534 11.3227 10.1531C11.4572 10.1528 11.5864 10.206 11.6817 10.3009L13.7073 12.3141V11.2318V11.2287ZM11.6431 5.70866C11.5128 5.70148 11.3902 5.64467 11.3005 5.54991C11.2109 5.45516 11.1609 5.32964 11.1609 5.19918C11.1609 5.06871 11.2109 4.9432 11.3005 4.84844C11.3902 4.75368 11.5128 4.69688 11.6431 4.6897H13.9531C14.088 4.6897 14.2174 4.74329 14.3128 4.83869C14.4082 4.9341 14.4618 5.06349 14.4618 5.1984V7.55176C14.4618 7.68668 14.4082 7.81607 14.3128 7.91147C14.2174 8.00687 14.088 8.06047 13.9531 8.06047C13.8182 8.06047 13.6888 8.00687 13.5934 7.91147C13.498 7.81607 13.4444 7.68668 13.4444 7.55176V6.4292L11.4343 8.45011C11.3871 8.49773 11.331 8.53558 11.2692 8.56151C11.2073 8.58743 11.141 8.60092 11.0739 8.60121C11.0069 8.6015 10.9404 8.58857 10.8784 8.56318C10.8163 8.53778 10.7599 8.50042 10.7122 8.45321C10.6646 8.406 10.6268 8.34987 10.6008 8.28803C10.5749 8.22619 10.5614 8.15986 10.5611 8.0928C10.5609 8.02575 10.5738 7.9593 10.5992 7.89724C10.6246 7.83518 10.6619 7.77874 10.7091 7.73112L12.7285 5.70557L11.6431 5.70866Z" fill="white"/>
</g>
<defs>
<clipPath id="clip0_88_17">
<rect width="19" height="19" fill="white"/>
</clipPath>
</defs>
</svg>
